
<svg width="46" height="57" viewBox="0 0 46 57" fill="none" xmlns="http://www.w3.org/2000/svg">
<style>
		path {
			fill: white;
		}
		@media ( prefers-color-scheme: light ) {
			path {
				fill: black;
			}
		}
</style>
<path fill-rule="evenodd" clip-rule="evenodd" d="M45.2163 1.1091L37.8156 0.0116836C37.5966 -0.0322312 37.3777 0.0555679 37.2901 0.143367L34.1372 4.26962C33.9182 4.53302 33.8744 4.88418 33.962 5.19146C34.0496 5.49874 33.7868 5.76211 33.4803 5.71823L30.8966 5.14755C30.5025 5.05975 30.0646 5.19146 29.8018 5.54263L19.5547 18.7116C19.3796 18.975 19.0293 19.0628 18.7227 18.9311L14.8253 17.1752C14.475 16.9996 14.0809 17.0435 13.7743 17.263L11.8037 18.6238C11.4972 18.8433 11.0593 18.8872 10.709 18.7116L9.74556 18.2287C9.13249 17.9214 8.38804 18.2726 8.21287 18.9311L7.51222 22.0477C7.33705 22.7939 7.64359 23.5402 8.30046 23.9353L9.78935 24.8571L14.5626 27.7982L16.8835 29.2468C17.5404 29.6418 18.3724 29.554 18.9417 29.0712L22.8391 25.6472C23.1456 25.3838 23.6273 25.2961 23.9776 25.5156L25.16 26.1301C25.5541 26.3496 26.0358 26.2618 26.3424 25.9545L28.313 24.1109C28.6195 23.8036 29.1012 23.7597 29.4515 23.9353L32.3855 25.2961C32.8234 25.5156 33.3489 25.3838 33.6555 24.9888L35.013 23.2329L45.3039 10.0201C45.7856 9.40551 45.479 8.4837 44.6908 8.3081L42.4137 7.78134C41.932 7.69357 41.713 7.07901 42.0633 6.72784L45.6104 2.29428C45.9607 1.76751 45.7418 1.19686 45.2163 1.1091ZM11.2779 27.7104C11.059 27.5787 10.84 27.7982 10.9276 28.0177L12.0224 30.9149C12.11 31.1343 12.11 31.3538 12.0662 31.5733L11.1028 35.3484C11.059 35.6118 11.1466 35.8751 11.3217 36.0068L14.0806 38.1578C14.3433 38.3334 14.6936 38.3334 14.9126 38.1139L17.8028 35.5679C17.978 35.4362 18.1969 35.3484 18.3721 35.3045L21.6564 34.9533C21.8754 34.9095 21.9629 34.6021 21.744 34.4705L11.2779 27.7104ZM9.6579 37.3677C9.87685 37.2799 10.1396 37.3238 10.3148 37.4555L13.2926 39.7381C13.4239 39.8698 13.5115 40.0454 13.5115 40.2649L13.2488 43.601C13.205 43.7766 13.1612 43.9083 13.0298 44.04L0.199038 56.9455C0.111456 57.0772 -0.0637126 56.9455 0.0238695 56.8138L3.57095 50.9756C3.61474 50.9317 3.57094 50.8439 3.52715 50.8H3.39578L2.25722 51.239C2.16963 51.239 2.12584 51.1951 2.08205 51.1512V51.0634L7.03044 38.8163C7.11802 38.6846 7.2056 38.5529 7.33698 38.509L9.6579 37.3677Z" fill="white"/>
</svg>
